<mxfile host="Electron" modified="2024-02-18T17:12:07.506Z" agent="Mozilla/5.0 (Windows NT 10.0; Win64; x64) AppleWebKit/537.36 (KHTML, like Gecko) draw.io/23.1.5 Chrome/120.0.6099.109 Electron/28.1.0 Safari/537.36" etag="zvmNGWrUjTYe6AVbYUDm" version="23.1.5" type="device">
  <diagram name="Page-1" id="e7e014a7-5840-1c2e-5031-d8a46d1fe8dd">
    <mxGraphModel dx="1114" dy="1004" grid="1" gridSize="10" guides="1" tooltips="1" connect="1" arrows="1" fold="1" page="1" pageScale="1" pageWidth="1169" pageHeight="826" background="none" math="0" shadow="0">
      <root>
        <mxCell id="0" />
        <mxCell id="1" parent="0" />
        <mxCell id="C75byAEtQrgXl-OeZrMn-50" value="&lt;div style=&quot;font-size: 16px;&quot;&gt;&lt;font style=&quot;font-size: 16px;&quot;&gt;&amp;nbsp;-&amp;nbsp; private&lt;/font&gt;&lt;/div&gt;&lt;div style=&quot;font-size: 16px;&quot;&gt;&lt;span style=&quot;background-color: initial; font-size: 16px;&quot;&gt;&lt;font style=&quot;font-size: 16px;&quot;&gt;#&amp;nbsp; protected&lt;/font&gt;&lt;/span&gt;&lt;/div&gt;&lt;div style=&quot;font-size: 16px;&quot;&gt;&lt;span style=&quot;background-color: initial; font-size: 16px;&quot;&gt;&lt;font style=&quot;font-size: 16px;&quot;&gt;+&amp;nbsp; public&lt;/font&gt;&lt;/span&gt;&lt;/div&gt;&lt;div style=&quot;font-size: 16px;&quot;&gt;&lt;span style=&quot;background-color: initial; font-size: 16px;&quot;&gt;&lt;font style=&quot;font-size: 16px;&quot;&gt;~&amp;nbsp; default&lt;/font&gt;&lt;/span&gt;&lt;/div&gt;" style="text;html=1;align=left;verticalAlign=middle;resizable=0;points=[];autosize=1;strokeColor=none;fillColor=none;fontFamily=Helvetica;textDirection=ltr;fontSize=16;" vertex="1" parent="1">
          <mxGeometry x="1010" y="40" width="110" height="90" as="geometry" />
        </mxCell>
        <mxCell id="C75byAEtQrgXl-OeZrMn-68" value="&lt;font style=&quot;font-size: 18px;&quot;&gt;Oblik&lt;/font&gt;" style="swimlane;fontStyle=1;align=center;verticalAlign=top;childLayout=stackLayout;horizontal=1;startSize=30;horizontalStack=0;resizeParent=1;resizeParentMax=0;resizeLast=0;collapsible=1;marginBottom=0;whiteSpace=wrap;html=1;fontSize=16;" vertex="1" parent="1">
          <mxGeometry x="485" y="183" width="200" height="200" as="geometry" />
        </mxCell>
        <mxCell id="C75byAEtQrgXl-OeZrMn-69" value="&lt;font style=&quot;font-size: 16px;&quot; face=&quot;Tahoma&quot;&gt;# boja: String&lt;br&gt;# tip: String&lt;br&gt;# brojStrana: int&lt;br&gt;# povrsina: double&lt;br&gt;&lt;/font&gt;&lt;div style=&quot;font-size: 16px;&quot;&gt;&lt;br&gt;&lt;/div&gt;" style="text;strokeColor=none;fillColor=none;align=left;verticalAlign=top;spacingLeft=4;spacingRight=4;overflow=hidden;rotatable=0;points=[[0,0.5],[1,0.5]];portConstraint=eastwest;whiteSpace=wrap;html=1;" vertex="1" parent="C75byAEtQrgXl-OeZrMn-68">
          <mxGeometry y="30" width="200" height="94" as="geometry" />
        </mxCell>
        <mxCell id="C75byAEtQrgXl-OeZrMn-70" value="" style="line;strokeWidth=1;fillColor=none;align=left;verticalAlign=middle;spacingTop=-1;spacingLeft=3;spacingRight=3;rotatable=0;labelPosition=right;points=[];portConstraint=eastwest;strokeColor=inherit;" vertex="1" parent="C75byAEtQrgXl-OeZrMn-68">
          <mxGeometry y="124" width="200" height="8" as="geometry" />
        </mxCell>
        <mxCell id="C75byAEtQrgXl-OeZrMn-71" value="&lt;font style=&quot;font-size: 16px;&quot;&gt;+ Oblik:&lt;br&gt;+ promeniBoju: void&lt;br&gt;+ showOblik: void&lt;br&gt;&lt;/font&gt;" style="text;strokeColor=none;fillColor=none;align=left;verticalAlign=top;spacingLeft=4;spacingRight=4;overflow=hidden;rotatable=0;points=[[0,0.5],[1,0.5]];portConstraint=eastwest;whiteSpace=wrap;html=1;" vertex="1" parent="C75byAEtQrgXl-OeZrMn-68">
          <mxGeometry y="132" width="200" height="68" as="geometry" />
        </mxCell>
        <mxCell id="C75byAEtQrgXl-OeZrMn-77" value="" style="html=1;verticalAlign=bottom;endArrow=block;curved=0;rounded=0;strokeWidth=1;startArrow=none;startFill=0;endFill=0;endSize=16;startSize=0;jumpSize=10;" edge="1" parent="1">
          <mxGeometry width="80" relative="1" as="geometry">
            <mxPoint x="584" y="463" as="sourcePoint" />
            <mxPoint x="584" y="387" as="targetPoint" />
          </mxGeometry>
        </mxCell>
        <mxCell id="C75byAEtQrgXl-OeZrMn-80" value="&lt;font style=&quot;font-size: 18px;&quot;&gt;Kvadrat&lt;/font&gt;" style="swimlane;fontStyle=1;align=center;verticalAlign=top;childLayout=stackLayout;horizontal=1;startSize=30;horizontalStack=0;resizeParent=1;resizeParentMax=0;resizeLast=0;collapsible=1;marginBottom=0;whiteSpace=wrap;html=1;fontSize=16;" vertex="1" parent="1">
          <mxGeometry x="280" y="523" width="200" height="120" as="geometry" />
        </mxCell>
        <mxCell id="C75byAEtQrgXl-OeZrMn-81" value="&lt;font style=&quot;font-size: 16px;&quot; face=&quot;Tahoma&quot;&gt;# duzinaStranice: double&lt;br&gt;&lt;br&gt;&lt;/font&gt;&lt;div style=&quot;font-size: 16px;&quot;&gt;&lt;br&gt;&lt;/div&gt;" style="text;strokeColor=none;fillColor=none;align=left;verticalAlign=top;spacingLeft=4;spacingRight=4;overflow=hidden;rotatable=0;points=[[0,0.5],[1,0.5]];portConstraint=eastwest;whiteSpace=wrap;html=1;" vertex="1" parent="C75byAEtQrgXl-OeZrMn-80">
          <mxGeometry y="30" width="200" height="30" as="geometry" />
        </mxCell>
        <mxCell id="C75byAEtQrgXl-OeZrMn-82" value="" style="line;strokeWidth=1;fillColor=none;align=left;verticalAlign=middle;spacingTop=-1;spacingLeft=3;spacingRight=3;rotatable=0;labelPosition=right;points=[];portConstraint=eastwest;strokeColor=inherit;" vertex="1" parent="C75byAEtQrgXl-OeZrMn-80">
          <mxGeometry y="60" width="200" height="8" as="geometry" />
        </mxCell>
        <mxCell id="C75byAEtQrgXl-OeZrMn-83" value="&lt;font style=&quot;font-size: 16px;&quot;&gt;+ Kvadrat:&lt;br&gt;+ povrsinaKvadrata: void&lt;br&gt;&lt;/font&gt;" style="text;strokeColor=none;fillColor=none;align=left;verticalAlign=top;spacingLeft=4;spacingRight=4;overflow=hidden;rotatable=0;points=[[0,0.5],[1,0.5]];portConstraint=eastwest;whiteSpace=wrap;html=1;" vertex="1" parent="C75byAEtQrgXl-OeZrMn-80">
          <mxGeometry y="68" width="200" height="52" as="geometry" />
        </mxCell>
        <mxCell id="C75byAEtQrgXl-OeZrMn-85" value="" style="shape=partialRectangle;whiteSpace=wrap;html=1;bottom=1;right=1;left=1;top=0;fillColor=none;routingCenterX=-0.5;rotation=-180;" vertex="1" parent="1">
          <mxGeometry x="380" y="463" width="410" height="60" as="geometry" />
        </mxCell>
        <mxCell id="C75byAEtQrgXl-OeZrMn-86" value="&lt;font style=&quot;font-size: 18px;&quot;&gt;Krug&lt;/font&gt;" style="swimlane;fontStyle=1;align=center;verticalAlign=top;childLayout=stackLayout;horizontal=1;startSize=30;horizontalStack=0;resizeParent=1;resizeParentMax=0;resizeLast=0;collapsible=1;marginBottom=0;whiteSpace=wrap;html=1;fontSize=16;" vertex="1" parent="1">
          <mxGeometry x="690" y="523" width="200" height="120" as="geometry" />
        </mxCell>
        <mxCell id="C75byAEtQrgXl-OeZrMn-87" value="&lt;font style=&quot;font-size: 16px;&quot; face=&quot;Tahoma&quot;&gt;# poluprecnik: double&lt;br&gt;&lt;br&gt;&lt;/font&gt;&lt;div style=&quot;font-size: 16px;&quot;&gt;&lt;br&gt;&lt;/div&gt;" style="text;strokeColor=none;fillColor=none;align=left;verticalAlign=top;spacingLeft=4;spacingRight=4;overflow=hidden;rotatable=0;points=[[0,0.5],[1,0.5]];portConstraint=eastwest;whiteSpace=wrap;html=1;" vertex="1" parent="C75byAEtQrgXl-OeZrMn-86">
          <mxGeometry y="30" width="200" height="30" as="geometry" />
        </mxCell>
        <mxCell id="C75byAEtQrgXl-OeZrMn-88" value="" style="line;strokeWidth=1;fillColor=none;align=left;verticalAlign=middle;spacingTop=-1;spacingLeft=3;spacingRight=3;rotatable=0;labelPosition=right;points=[];portConstraint=eastwest;strokeColor=inherit;" vertex="1" parent="C75byAEtQrgXl-OeZrMn-86">
          <mxGeometry y="60" width="200" height="8" as="geometry" />
        </mxCell>
        <mxCell id="C75byAEtQrgXl-OeZrMn-89" value="&lt;font style=&quot;font-size: 16px;&quot;&gt;+ Krug:&lt;br&gt;+ povrsinaKruga: void&lt;br&gt;&lt;/font&gt;" style="text;strokeColor=none;fillColor=none;align=left;verticalAlign=top;spacingLeft=4;spacingRight=4;overflow=hidden;rotatable=0;points=[[0,0.5],[1,0.5]];portConstraint=eastwest;whiteSpace=wrap;html=1;" vertex="1" parent="C75byAEtQrgXl-OeZrMn-86">
          <mxGeometry y="68" width="200" height="52" as="geometry" />
        </mxCell>
      </root>
    </mxGraphModel>
  </diagram>
</mxfile>
